# xmcd CD database file
#
# Track frame offsets:
#	150
#	3774
#	29433
#
# Disc length: 468 seconds
#
# Revision: 0
# Processed by: cddbd v1.5.1PL0 Copyright (c) Steve Scherf et al.
# Submitted via: CDex 1.60beta1
#
DISCID=1501d203
DTITLE=Matthew - Jazz Fly
DYEAR=1900
DGENRE=Jazz
TTITLE0=Intro
TTITLE1=The Jazz Fly
TTITLE2=Outro
EXTD=
EXTT0=
EXTT1=
EXTT2=
PLAYORDER=
